<?xml version="1.0" encoding="UTF-8"?>
<svg width="24px" height="24px" viewBox="0 0 24 24" version="1.1" xmlns="http://www.w3.org/2000/svg" xmlns:xlink="http://www.w3.org/1999/xlink">
    <!-- Generator: Sketch 55.2 (78181) - https://sketchapp.com -->
    <title>我要背书</title>
    <desc>Created with Sketch.</desc>
    <defs>
        <linearGradient x1="100%" y1="100%" x2="0%" y2="0%" id="linearGradient-1">
            <stop stop-color="#FFC527" offset="0%"></stop>
            <stop stop-color="#FFA01C" offset="100%"></stop>
        </linearGradient>
        <polygon id="path-2" points="0 0.0001 14 0.0001 14 12.6826 0 12.6826"></polygon>
    </defs>
    <g id="页面-1" stroke="none" stroke-width="1" fill="none" fill-rule="evenodd">
        <g id="-票据好管家5" transform="translate(-640.000000, -131.000000)">
            <g id="分组-14" transform="translate(210.000000, 111.000000)">
                <g id="边距-&lt;h10-&gt;">
                    <g id="分组-8-copy-2" transform="translate(410.000000, 0.000000)">
                        <g id="我要背书" transform="translate(20.000000, 20.000000)">
                            <circle id="椭圆形" fill="url(#linearGradient-1)" cx="12" cy="12" r="12"></circle>
                            <g id="分组" transform="translate(5.000000, 6.000000)">
                                <mask id="mask-3" fill="white">
                                    <use xlink:href="#path-2"></use>
                                </mask>
                                <g id="Clip-2"></g>
                                <path d="M13.5,7.4551 C13.776,7.4551 14,7.2311 14,6.9551 L14,0.5001 C14,0.2241 13.776,0.0001 13.5,0.0001 L8.991,0.0001 C8.178,0.0001 7.455,0.3911 7,0.9961 C6.545,0.3911 5.822,0.0001 5.009,0.0001 L0.5,0.0001 C0.224,0.0001 0,0.2241 0,0.5001 L0,11.1801 C0,11.4561 0.224,11.6801 0.5,11.6801 L4.846,11.6801 C5.38,12.3121 6.167,12.6831 7,12.6831 C7.833,12.6831 8.62,12.3121 9.154,11.6801 L13.5,11.6801 C13.776,11.6801 14,11.4561 14,11.1801 L14,9.8591 C14,9.5831 13.776,9.3591 13.5,9.3591 C13.224,9.3591 13,9.5831 13,9.8591 L13,10.6801 L8.908,10.6801 C8.744,10.6801 8.59,10.7601 8.497,10.8951 C8.155,11.3881 7.596,11.6831 7,11.6831 C6.404,11.6831 5.845,11.3881 5.504,10.8951 C5.411,10.7601 5.257,10.6801 5.093,10.6801 L1,10.6801 L1,1.0001 L5.009,1.0001 C5.831,1.0001 6.5,1.6691 6.5,2.4911 L6.5,7.8281 C6.5,8.1041 6.724,8.3281 7,8.3281 C7.276,8.3281 7.5,8.1041 7.5,7.8281 L7.5,2.4911 C7.5,1.6691 8.169,1.0001 8.991,1.0001 L13,1.0001 L13,6.9551 C13,7.2311 13.224,7.4551 13.5,7.4551" id="Fill-1" fill="#FFFFFF" mask="url(#mask-3)"></path>
                            </g>
                        </g>
                    </g>
                </g>
            </g>
        </g>
    </g>
</svg>