<?xml version="1.0" encoding="UTF-8"?>
<svg width="24px" height="24px" viewBox="0 0 24 24" version="1.1" xmlns="http://www.w3.org/2000/svg" xmlns:xlink="http://www.w3.org/1999/xlink">
    <!-- Generator: Sketch 55.2 (78181) - https://sketchapp.com -->
    <title>我要托收</title>
    <desc>Created with Sketch.</desc>
    <defs>
        <linearGradient x1="100%" y1="100%" x2="0%" y2="0%" id="linearGradient-1">
            <stop stop-color="#FFC527" offset="0%"></stop>
            <stop stop-color="#FFA01C" offset="100%"></stop>
        </linearGradient>
        <polygon id="path-2" points="0.000135266285 0 9.84540702 0 9.84540702 11.19976 0.000135266285 11.19976"></polygon>
    </defs>
    <g id="页面-1" stroke="none" stroke-width="1" fill="none" fill-rule="evenodd">
        <g id="-票据好管家5" transform="translate(-1050.000000, -131.000000)">
            <g id="分组-14" transform="translate(210.000000, 111.000000)">
                <g id="边距-&lt;h10-&gt;">
                    <g id="分组-8-copy-4" transform="translate(820.000000, 0.000000)">
                        <g id="我要托收" transform="translate(20.000000, 20.000000)">
                            <circle id="椭圆形" fill="url(#linearGradient-1)" cx="12" cy="12" r="12"></circle>
                            <g id="分组" transform="translate(7.000000, 6.000000)">
                                <g>
                                    <mask id="mask-3" fill="white">
                                        <use xlink:href="#path-2"></use>
                                    </mask>
                                    <g id="Clip-2"></g>
                                    <path d="M9.00688,8.36056 L8.23008,10.13096 C8.15728,10.29416 7.99568,10.39976 7.81728,10.39976 L7.81648,10.39976 L2.01648,10.38296 C1.83728,10.38216 1.67568,10.27576 1.60448,10.11096 L0.83728,8.33656 C0.77568,8.19416 0.79008,8.03896 0.87408,7.91016 C0.95968,7.78136 1.09648,7.70776 1.25088,7.70776 L1.25168,7.70776 L8.59648,7.72936 C8.75088,7.73016 8.88848,7.80456 8.97248,7.93416 C9.05648,8.06376 9.06928,8.21896 9.00688,8.36056 M9.64288,7.49736 C9.41168,7.14296 9.02208,6.93096 8.59888,6.92936 L1.67648,6.90936 L1.67648,1.76696 C1.67648,1.23416 2.01808,0.79976 2.43888,0.79976 L7.40688,0.79976 C7.82768,0.79976 8.16928,1.23416 8.16928,1.76696 L8.16928,5.50136 C8.16928,5.72216 8.34848,5.90136 8.56928,5.90136 C8.79008,5.90136 8.96928,5.72216 8.96928,5.50136 L8.96928,1.76696 C8.96928,0.79256 8.26848,-0.00024 7.40688,-0.00024 L2.43888,-0.00024 C1.57728,-0.00024 0.87648,0.79256 0.87648,1.76696 L0.87648,6.97176 C0.60608,7.05656 0.36768,7.22696 0.20688,7.47016 C-0.02592,7.82296 -0.06432,8.26536 0.10288,8.65336 L0.87008,10.42856 C1.06688,10.88456 1.51568,11.18136 2.01408,11.18296 L7.81408,11.19976 C7.81328,11.19976 7.81568,11.19976 7.81728,11.19976 C8.31328,11.19976 8.76288,10.90696 8.96208,10.45256 L9.73968,8.68216 C9.90928,8.29496 9.87328,7.85176 9.64288,7.49736" id="Fill-1" fill="#FFFFFF" mask="url(#mask-3)"></path>
                                </g>
                                <path d="M6.8092,2.71016 L3.0364,2.71016 C2.8156,2.71016 2.6364,2.88936 2.6364,3.11016 C2.6364,3.33096 2.8156,3.51016 3.0364,3.51016 L6.8092,3.51016 C7.03,3.51016 7.2092,3.33096 7.2092,3.11016 C7.2092,2.88936 7.03,2.71016 6.8092,2.71016" id="Fill-3" fill="#FFFFFF"></path>
                                <path d="M6.8092,4.80704 L3.0364,4.80704 C2.8156,4.80704 2.6364,4.98624 2.6364,5.20704 C2.6364,5.42784 2.8156,5.60704 3.0364,5.60704 L6.8092,5.60704 C7.03,5.60704 7.2092,5.42784 7.2092,5.20704 C7.2092,4.98624 7.03,4.80704 6.8092,4.80704" id="Fill-5" fill="#FFFFFF"></path>
                                <path d="M5.52328,7.9824 L4.32248,7.9824 C4.10168,7.9824 3.92248,8.1616 3.92248,8.3824 C3.92248,8.6032 4.10168,8.7824 4.32248,8.7824 L5.52328,8.7824 C5.74408,8.7824 5.92328,8.6032 5.92328,8.3824 C5.92328,8.1616 5.74408,7.9824 5.52328,7.9824" id="Fill-7" fill="#FFFFFF"></path>
                            </g>
                        </g>
                    </g>
                </g>
            </g>
        </g>
    </g>
</svg>