<?xml version="1.0" encoding="UTF-8"?>
<svg width="24px" height="24px" viewBox="0 0 24 24" version="1.1" xmlns="http://www.w3.org/2000/svg" xmlns:xlink="http://www.w3.org/1999/xlink">
    <!-- Generator: Sketch 55.2 (78181) - https://sketchapp.com -->
    <title>我要贴现</title>
    <desc>Created with Sketch.</desc>
    <defs>
        <linearGradient x1="100%" y1="100%" x2="0%" y2="0%" id="linearGradient-1">
            <stop stop-color="#FFC527" offset="0%"></stop>
            <stop stop-color="#FFA01C" offset="100%"></stop>
        </linearGradient>
        <polygon id="path-2" points="0.0001 0 12.991 0 12.991 14 0.0001 14"></polygon>
    </defs>
    <g id="页面-1" stroke="none" stroke-width="1" fill="none" fill-rule="evenodd">
        <g id="-票据好管家5" transform="translate(-845.000000, -131.000000)">
            <g id="分组-14" transform="translate(210.000000, 111.000000)">
                <g id="边距-&lt;h10-&gt;">
                    <g id="分组-8-copy-3" transform="translate(615.000000, 0.000000)">
                        <g id="我要贴现" transform="translate(20.000000, 20.000000)">
                            <circle id="椭圆形" fill="url(#linearGradient-1)" cx="12" cy="12" r="12"></circle>
                            <g id="分组" transform="translate(6.000000, 5.000000)">
                                <g>
                                    <mask id="mask-3" fill="white">
                                        <use xlink:href="#path-2"></use>
                                    </mask>
                                    <g id="Clip-2"></g>
                                    <path d="M6.4951,13 C1.6531,13 1.0001,11.116 1.0001,9.272 C1.0001,7.082 3.0461,4.281 5.1521,3.563 L8.0931,3.563 C10.3291,4.322 11.9911,7.184 11.9911,9.272 C11.9901,11.116 11.3371,13 6.4951,13 M6.4951,1 C7.5441,1 8.1581,1.298 8.4761,1.53 L7.4611,2.561 L5.5301,2.561 L4.5151,1.531 C4.8351,1.297 5.4481,1 6.4951,1 M8.6991,2.729 L9.5371,1.878 C9.7021,1.711 9.7281,1.453 9.6011,1.256 C9.5681,1.205 8.7651,0 6.4951,0 C4.2261,0 3.4221,1.205 3.3891,1.256 C3.2621,1.453 3.2881,1.711 3.4531,1.878 L4.3821,2.821 C2.0291,3.879 0.0001,6.782 0.0001,9.272 C0.0001,12.498 2.0641,14 6.4951,14 C10.9261,14 12.9901,12.498 12.9911,9.272 C12.9911,6.925 11.2451,3.774 8.6991,2.729" id="Fill-1" fill="#FFFFFF" mask="url(#mask-3)"></path>
                                </g>
                                <path d="M8.6475,8.3389 C8.9235,8.3389 9.1475,8.1149 9.1475,7.8389 C9.1475,7.5629 8.9235,7.3389 8.6475,7.3389 L7.1665,7.3389 L8.5435,6.1139 C8.7505,5.9299 8.7685,5.6139 8.5855,5.4079 C8.4015,5.2009 8.0845,5.1819 7.8795,5.3669 L6.4925,6.5999 L5.1125,5.3669 C4.9065,5.1839 4.5905,5.2009 4.4065,5.4069 C4.2225,5.6129 4.2405,5.9289 4.4465,6.1129 L5.8185,7.3389 L4.3435,7.3389 C4.0665,7.3389 3.8435,7.5629 3.8435,7.8389 C3.8435,8.1149 4.0665,8.3389 4.3435,8.3389 L5.9955,8.3389 L5.9955,9.2999 L4.3435,9.2999 C4.0665,9.2999 3.8435,9.5239 3.8435,9.7999 C3.8435,10.0759 4.0665,10.2999 4.3435,10.2999 L5.9955,10.2999 L5.9955,11.1779 C5.9955,11.4539 6.2195,11.6779 6.4955,11.6779 C6.7725,11.6779 6.9955,11.4539 6.9955,11.1779 L6.9955,10.2999 L8.6475,10.2999 C8.9235,10.2999 9.1475,10.0759 9.1475,9.7999 C9.1475,9.5239 8.9235,9.2999 8.6475,9.2999 L6.9955,9.2999 L6.9955,8.3389 L8.6475,8.3389 Z" id="Fill-3" fill="#FFFFFF"></path>
                            </g>
                        </g>
                    </g>
                </g>
            </g>
        </g>
    </g>
</svg>