<?xml version="1.0" encoding="UTF-8"?>
<svg width="30px" height="30px" viewBox="0 0 30 30" version="1.1" xmlns="http://www.w3.org/2000/svg" xmlns:xlink="http://www.w3.org/1999/xlink">
    <!-- Generator: Sketch 55.2 (78181) - https://sketchapp.com -->
    <title>开票直通车</title>
    <desc>Created with Sketch.</desc>
    <defs>
        <linearGradient x1="100%" y1="100%" x2="0%" y2="0%" id="linearGradient-1">
            <stop stop-color="#FFC527" offset="0%"></stop>
            <stop stop-color="#FFA01C" offset="100%"></stop>
        </linearGradient>
        <polygon id="path-2" points="0.0004 0.0003 13.7274 0.0003 13.7274 11.8853 0.0004 11.8853"></polygon>
    </defs>
    <g id="页面-1" stroke="none" stroke-width="1" fill="none" fill-rule="evenodd">
        <g id="-票据好管家5" transform="translate(-688.000000, -890.000000)">
            <g id="分组-40" transform="translate(210.000000, 875.000000)">
                <g id="分组-49" transform="translate(478.000000, 15.000000)">
                    <g id="开票直通车">
                        <circle id="椭圆形" fill="url(#linearGradient-1)" cx="15" cy="15" r="15"></circle>
                        <g id="分组" transform="translate(8.000000, 9.000000)">
                            <mask id="mask-3" fill="white">
                                <use xlink:href="#path-2"></use>
                            </mask>
                            <g id="Clip-2"></g>
                            <path d="M12.2964,9.7466 C12.0834,9.0886 11.4724,8.6076 10.7434,8.6076 C10.0154,8.6076 9.4034,9.0886 9.1914,9.7466 L8.7604,9.7466 L8.7604,5.2626 L12.7274,5.2626 L12.7274,6.2256 L10.1544,6.2256 C9.8784,6.2256 9.6544,6.4496 9.6544,6.7256 C9.6544,7.0016 9.8784,7.2256 10.1544,7.2256 L12.7274,7.2256 L12.7274,9.7466 L12.2964,9.7466 Z M10.7434,10.8856 C10.3914,10.8856 10.1054,10.5986 10.1054,10.2466 C10.1054,9.8936 10.3914,9.6076 10.7434,9.6076 C11.0964,9.6076 11.3824,9.8936 11.3824,10.2466 C11.3824,10.5986 11.0964,10.8856 10.7434,10.8856 L10.7434,10.8856 Z M3.9504,10.8856 C3.5984,10.8856 3.3114,10.5986 3.3114,10.2466 C3.3114,9.8936 3.5984,9.6076 3.9504,9.6076 C4.3024,9.6076 4.5894,9.8936 4.5894,10.2466 C4.5894,10.5986 4.3024,10.8856 3.9504,10.8856 L3.9504,10.8856 Z M1.0004,0.9996 L7.7604,0.9996 L7.7604,4.7626 L7.7604,9.7466 L5.5034,9.7466 C5.2904,9.0886 4.6784,8.6076 3.9504,8.6076 C3.2214,8.6076 2.6104,9.0886 2.3984,9.7466 L1.0004,9.7466 L1.0004,0.9996 Z M13.2274,4.2626 L8.7604,4.2626 L8.7604,0.4996 C8.7604,0.2236 8.5364,-0.0004 8.2604,-0.0004 L0.5004,-0.0004 C0.2234,-0.0004 0.0004,0.2236 0.0004,0.4996 L0.0004,10.2466 C0.0004,10.5226 0.2234,10.7466 0.5004,10.7466 L2.3984,10.7466 C2.6104,11.4046 3.2214,11.8856 3.9504,11.8856 C4.6784,11.8856 5.2904,11.4046 5.5034,10.7466 L8.2604,10.7466 L9.1914,10.7466 C9.4034,11.4046 10.0154,11.8856 10.7434,11.8856 C11.4724,11.8856 12.0834,11.4046 12.2964,10.7466 L13.2274,10.7466 C13.5044,10.7466 13.7274,10.5226 13.7274,10.2466 L13.7274,4.7626 C13.7274,4.4866 13.5044,4.2626 13.2274,4.2626 L13.2274,4.2626 Z" id="Fill-1" fill="#FFFFFF" mask="url(#mask-3)"></path>
                        </g>
                    </g>
                </g>
            </g>
        </g>
    </g>
</svg>