<?xml version="1.0" encoding="UTF-8"?>
<svg width="30px" height="30px" viewBox="0 0 30 30" version="1.1" xmlns="http://www.w3.org/2000/svg" xmlns:xlink="http://www.w3.org/1999/xlink">
    <!-- Generator: Sketch 55.2 (78181) - https://sketchapp.com -->
    <title>我要贷款</title>
    <desc>Created with Sketch.</desc>
    <defs>
        <linearGradient x1="100%" y1="100%" x2="0%" y2="0%" id="linearGradient-1">
            <stop stop-color="#FFC527" offset="0%"></stop>
            <stop stop-color="#FFA01C" offset="100%"></stop>
        </linearGradient>
    </defs>
    <g id="页面-1" stroke="none" stroke-width="1" fill="none" fill-rule="evenodd">
        <g id="-票据好管家5" transform="translate(-970.000000, -890.000000)">
            <g id="分组-40" transform="translate(210.000000, 875.000000)">
                <g id="分组-48" transform="translate(760.000000, 15.000000)">
                    <g id="我要贷款">
                        <circle id="椭圆形" fill="url(#linearGradient-1)" cx="15" cy="15" r="15"></circle>
                        <g id="分组" transform="translate(8.000000, 8.000000)" fill="#FFFFFF">
                            <path d="M7,9.0776 C6.42,8.2846 5.716,7.5796 4.922,6.9996 C5.716,6.4196 6.419,5.7166 7,4.9226 C7.581,5.7166 8.284,6.4196 9.078,6.9996 C8.284,7.5806 7.58,8.2846 7,9.0776 M7.426,3.7646 C7.245,3.4686 6.755,3.4686 6.574,3.7646 C5.875,4.9036 4.903,5.8746 3.764,6.5736 C3.616,6.6646 3.525,6.8266 3.525,6.9996 C3.525,7.1736 3.616,7.3356 3.764,7.4266 C4.903,8.1246 5.875,9.0966 6.574,10.2356 C6.665,10.3846 6.826,10.4746 7,10.4746 C7.174,10.4746 7.335,10.3846 7.426,10.2356 C8.125,9.0966 9.096,8.1246 10.236,7.4266 C10.384,7.3356 10.474,7.1736 10.474,6.9996 C10.474,6.8266 10.384,6.6646 10.236,6.5736 C9.097,5.8746 8.125,4.9036 7.426,3.7646" id="Fill-1"></path>
                            <path d="M7,13 C3.691,13 1,10.309 1,7 C1,3.691 3.691,1 7,1 C10.309,1 13,3.691 13,7 C13,10.309 10.309,13 7,13 M7,0 C3.14,0 0,3.14 0,7 C0,10.86 3.14,14 7,14 C10.86,14 14,10.86 14,7 C14,3.14 10.86,0 7,0" id="Fill-3"></path>
                        </g>
                    </g>
                </g>
            </g>
        </g>
    </g>
</svg>