<?xml version="1.0" encoding="UTF-8"?>
<svg width="30px" height="30px" viewBox="0 0 30 30" version="1.1" xmlns="http://www.w3.org/2000/svg" xmlns:xlink="http://www.w3.org/1999/xlink">
    <!-- Generator: Sketch 55.2 (78181) - https://sketchapp.com -->
    <title>我要入池</title>
    <desc>Created with Sketch.</desc>
    <defs>
        <linearGradient x1="100%" y1="100%" x2="0%" y2="0%" id="linearGradient-1">
            <stop stop-color="#FFC527" offset="0%"></stop>
            <stop stop-color="#FFA01C" offset="100%"></stop>
        </linearGradient>
    </defs>
    <g id="页面-1" stroke="none" stroke-width="1" fill="none" fill-rule="evenodd">
        <g id="-票据好管家5" transform="translate(-420.000000, -890.000000)">
            <g id="分组-40" transform="translate(210.000000, 875.000000)">
                <g id="分组-50" transform="translate(210.000000, 15.000000)">
                    <g id="我要入池">
                        <circle id="椭圆形" fill="url(#linearGradient-1)" cx="15" cy="15" r="15"></circle>
                        <path d="M20.957,21 L9,21 L9,17.015 L11.939,17.015 C12.179,18.476 13.451,19.594 14.978,19.594 C16.506,19.594 17.778,18.476 18.018,17.015 L20.957,17.015 L20.957,21 Z M9.959,16.015 L9.545,16.015 L9.959,15.5 L9.959,16.015 Z M11.702,11.173 L18.256,11.173 L18.256,10.576 L11.702,10.576 L11.702,11.173 Z M12.86,9.576 L17.097,9.576 L17.097,9 L12.86,9 L12.86,9.576 Z M17.558,16.015 C17.282,16.015 17.058,16.238 17.058,16.515 C17.058,17.661 16.125,18.594 14.978,18.594 C13.832,18.594 12.899,17.661 12.899,16.515 C12.899,16.238 12.675,16.015 12.399,16.015 L10.959,16.015 L10.959,14.093 C10.96,14.06 10.964,14.029 10.959,13.997 L10.959,12.172 L18.998,12.172 L18.998,13.997 C18.993,14.029 18.997,14.06 18.998,14.093 L18.998,16.015 L17.558,16.015 Z M20.412,16.015 L19.998,16.015 L19.998,15.5 L20.412,16.015 Z M21.944,16.45 C21.939,16.416 21.936,16.383 21.924,16.351 C21.912,16.316 21.894,16.287 21.874,16.256 C21.864,16.238 21.86,16.218 21.846,16.201 L19.998,13.906 L19.998,11.672 C19.998,11.396 19.774,11.172 19.498,11.172 L19.255,11.172 L19.255,10.076 C19.255,9.799 19.032,9.576 18.755,9.576 L18.097,9.576 L18.097,8.5 C18.097,8.224 17.874,8 17.597,8 L12.36,8 C12.083,8 11.86,8.224 11.86,8.5 L11.86,9.576 L11.202,9.576 C10.925,9.576 10.702,9.799 10.702,10.076 L10.702,11.172 L10.459,11.172 C10.183,11.172 9.959,11.396 9.959,11.672 L9.959,13.906 L8.111,16.201 C8.097,16.218 8.093,16.238 8.082,16.256 C8.063,16.287 8.045,16.316 8.033,16.351 C8.021,16.383 8.018,16.416 8.013,16.45 C8.01,16.472 8,16.492 8,16.515 L8,21.5 C8,21.776 8.224,22 8.5,22 L21.457,22 C21.733,22 21.957,21.776 21.957,21.5 L21.957,16.515 C21.957,16.492 21.947,16.472 21.944,16.45 L21.944,16.45 Z" id="Fill-1" fill="#FFFFFF"></path>
                    </g>
                </g>
            </g>
        </g>
    </g>
</svg>