<?xml version="1.0" encoding="UTF-8"?>
<svg width="24px" height="24px" viewBox="0 0 24 24" version="1.1" xmlns="http://www.w3.org/2000/svg" xmlns:xlink="http://www.w3.org/1999/xlink">
    <!-- Generator: Sketch 55.2 (78181) - https://sketchapp.com -->
    <title>我要开票</title>
    <desc>Created with Sketch.</desc>
    <defs>
        <linearGradient x1="100%" y1="100%" x2="0%" y2="0%" id="linearGradient-1">
            <stop stop-color="#FFC527" offset="0%"></stop>
            <stop stop-color="#FFA01C" offset="100%"></stop>
        </linearGradient>
        <polygon id="path-2" points="0 0.563941654 14.007 0.563941654 14.007 8 0 8"></polygon>
    </defs>
    <g id="页面-1" stroke="none" stroke-width="1" fill="none" fill-rule="evenodd">
        <g id="-票据好管家5" transform="translate(-230.000000, -131.000000)">
            <g id="分组-14" transform="translate(210.000000, 111.000000)">
                <g id="边距-&lt;h10-&gt;">
                    <g id="分组-8">
                        <g id="分组-42" transform="translate(20.000000, 20.000000)">
                            <g id="我要开票">
                                <circle id="椭圆形" fill="url(#linearGradient-1)" cx="12" cy="12" r="12"></circle>
                                <g id="分组" transform="translate(5.000000, 5.000000)">
                                    <g transform="translate(0.000000, 5.759300)">
                                        <mask id="mask-3" fill="white">
                                            <use xlink:href="#path-2"></use>
                                        </mask>
                                        <g id="Clip-2"></g>
                                        <path d="M13.904,3.5723 C13.629,3.0083 12.889,2.8023 12.182,3.0943 C11.902,3.2093 9.649,4.1293 9.108,4.3483 C9.015,4.3863 8.929,4.4183 8.842,4.4503 C8.988,3.7583 8.587,3.0073 7.826,2.5893 C7.439,2.3773 6.268,1.7183 5.147,1.0743 C4.073,0.4583 3.133,0.4003 2.271,0.8983 C1.752,1.1993 0.276,2.1313 0.239,2.1553 C0.238,2.1553 0.237,2.1553 0.236,2.1553 C0.235,2.1563 0.235,2.1573 0.234,2.1583 L0.233,2.1583 C0.002,2.3053 -0.07,2.6103 0.075,2.8433 C0.22,3.0773 0.528,3.1503 0.762,3.0053 C0.764,3.0043 0.764,3.0023 0.766,3.0023 L0.767,3.0043 C0.767,3.0043 2.256,2.0633 2.772,1.7633 C3.136,1.5533 3.677,1.3843 4.649,1.9423 C5.778,2.5903 6.956,3.2533 7.345,3.4663 C7.773,3.7003 7.93,4.0493 7.864,4.2733 C7.81,4.4553 7.616,4.4823 7.482,4.4793 C6.753,4.2543 5.462,3.8273 5.461,3.8263 L5.459,3.8323 C5.409,3.8163 5.358,3.8013 5.303,3.8013 C5.027,3.8013 4.803,4.0243 4.803,4.3003 C4.803,4.5223 4.95,4.7033 5.149,4.7693 L5.147,4.7763 C5.147,4.7763 6.923,5.3643 7.511,5.5313 C8.294,5.7573 8.981,5.4783 9.483,5.2753 C10.025,5.0563 12.284,4.1343 12.564,4.0183 C12.801,3.9213 12.979,3.9753 13.005,4.0093 C13.025,4.0853 12.876,4.5223 11.81,5.1273 C11.14,5.5073 10.628,5.8093 10.218,6.0513 C9.198,6.6523 8.855,6.8543 8.273,6.9803 C7.749,7.0933 6.252,6.7113 5.157,6.4333 C4.586,6.2873 4.04,6.1493 3.598,6.0613 C2.116,5.7693 0.522,5.9133 0.454,5.9183 C0.179,5.9443 -0.023,6.1883 0.002,6.4633 C0.028,6.7373 0.259,6.9353 0.547,6.9143 C0.562,6.9133 2.063,6.7783 3.404,7.0433 C3.831,7.1273 4.358,7.2613 4.91,7.4023 C6.292,7.7543 7.321,8.0003 8.035,8.0003 C8.202,8.0003 8.351,7.9863 8.484,7.9583 C9.223,7.7983 9.663,7.5393 10.726,6.9123 C11.133,6.6733 11.64,6.3733 12.303,5.9973 C14.272,4.8803 14.078,3.9293 13.904,3.5723" id="Fill-1" fill="#FFFFFF" mask="url(#mask-3)"></path>
                                    </g>
                                    <path d="M5.7995,6.5655 C6.0755,6.5655 6.2995,6.3415 6.2995,6.0655 L6.2995,1.3485 C6.2995,1.1565 6.4465,1.0005 6.6285,1.0005 L11.6015,1.0005 C11.7825,1.0005 11.9305,1.1565 11.9305,1.3485 L11.9305,7.1135 C11.9305,7.3055 11.7825,7.4615 11.6015,7.4615 L8.8885,7.4615 C8.6125,7.4615 8.3885,7.6855 8.3885,7.9615 C8.3885,8.2375 8.6125,8.4615 8.8885,8.4615 L11.6015,8.4615 C12.3345,8.4615 12.9305,7.8575 12.9305,7.1135 L12.9305,1.3485 C12.9305,0.6055 12.3345,0.0005 11.6015,0.0005 L6.6285,0.0005 C5.8955,0.0005 5.2995,0.6055 5.2995,1.3485 L5.2995,6.0655 C5.2995,6.3415 5.5235,6.5655 5.7995,6.5655" id="Fill-3" fill="#FFFFFF"></path>
                                    <path d="M7.3869,3.2959 L10.2939,3.2959 C10.5709,3.2959 10.7939,3.0719 10.7939,2.7959 C10.7939,2.5199 10.5709,2.2959 10.2939,2.2959 L7.3869,2.2959 C7.1109,2.2959 6.8869,2.5199 6.8869,2.7959 C6.8869,3.0719 7.1109,3.2959 7.3869,3.2959" id="Fill-5" fill="#FFFFFF"></path>
                                    <path d="M7.3869,5.4219 L8.5429,5.4219 C8.8199,5.4219 9.0429,5.1979 9.0429,4.9219 C9.0429,4.6459 8.8199,4.4219 8.5429,4.4219 L7.3869,4.4219 C7.1109,4.4219 6.8869,4.6459 6.8869,4.9219 C6.8869,5.1979 7.1109,5.4219 7.3869,5.4219" id="Fill-7" fill="#FFFFFF"></path>
                                </g>
                            </g>
                        </g>
                    </g>
                </g>
            </g>
        </g>
    </g>
</svg>