<?xml version="1.0" encoding="UTF-8"?>
<svg width="26px" height="26px" viewBox="0 0 26 26" version="1.1" xmlns="http://www.w3.org/2000/svg" xmlns:xlink="http://www.w3.org/1999/xlink">
    <!-- Generator: Sketch 55.2 (78181) - https://sketchapp.com -->
    <title>我要查询</title>
    <desc>Created with Sketch.</desc>
    <defs>
        <linearGradient x1="100%" y1="100%" x2="0%" y2="0%" id="linearGradient-1">
            <stop stop-color="#FFC527" offset="0%"></stop>
            <stop stop-color="#FFA01C" offset="100%"></stop>
        </linearGradient>
        <polygon id="path-2" points="0 0 13.1059 0 13.1059 13.105 0 13.105"></polygon>
        <polygon id="path-4" points="0.99465 0.9161 12.9867751 0.9161 12.9867751 13 0.99465 13"></polygon>
    </defs>
    <g id="页面-1" stroke="none" stroke-width="1" fill="none" fill-rule="evenodd">
        <g id="-票据好管家5" transform="translate(-1255.000000, -131.000000)">
            <g id="分组-14" transform="translate(210.000000, 111.000000)">
                <g id="边距-&lt;h10-&gt;">
                    <g id="分组-8-copy-5" transform="translate(1025.000000, 0.000000)">
                        <g id="我要查询" transform="translate(20.000000, 20.000000)">
                            <circle id="椭圆形" fill="url(#linearGradient-1)" cx="13" cy="13" r="13"></circle>
                            <g id="分组" transform="translate(6.000000, 6.000000)">
                                <g>
                                    <mask id="mask-3" fill="white">
                                        <use xlink:href="#path-2"></use>
                                    </mask>
                                    <g id="Clip-2"></g>
                                    <path d="M8.9639,12.105 L3.1299,12.105 C1.9559,12.105 0.9999,11.15 0.9999,9.976 L0.9999,3.129 C0.9999,1.955 1.9559,1 3.1299,1 L9.9759,1 C11.1499,1 12.1059,1.955 12.1059,3.129 L12.1059,9.106 C12.1059,9.383 12.3289,9.606 12.6059,9.606 C12.8819,9.606 13.1059,9.383 13.1059,9.106 L13.1059,3.129 C13.1059,1.404 11.7009,0 9.9759,0 L3.1299,0 C1.4039,0 -0.0001,1.404 -0.0001,3.129 L-0.0001,9.976 C-0.0001,11.701 1.4039,13.105 3.1299,13.105 L8.9639,13.105 C9.2399,13.105 9.4639,12.881 9.4639,12.605 C9.4639,12.329 9.2399,12.105 8.9639,12.105" id="Fill-1" fill="#FFFFFF" mask="url(#mask-3)"></path>
                                </g>
                                <g transform="translate(1.000000, 1.000000)">
                                    <mask id="mask-5" fill="white">
                                        <use xlink:href="#path-4"></use>
                                    </mask>
                                    <g id="Clip-4"></g>
                                    <path d="M11.8364,11.8501 L11.8364,11.8501 C11.6434,12.0431 11.3004,12.0431 11.1074,11.8501 L9.5084,10.2511 C9.4124,10.1551 9.3584,10.0251 9.3584,9.8871 C9.3584,9.7481 9.4124,9.6191 9.5084,9.5221 C9.6054,9.4261 9.7344,9.3721 9.8734,9.3721 C10.0114,9.3721 10.1414,9.4261 10.2374,9.5221 L11.8364,11.1211 C12.0374,11.3221 12.0374,11.6491 11.8364,11.8501 M2.9264,7.3571 C1.6844,6.1151 1.6844,4.0931 2.9264,2.8501 C3.5284,2.2481 4.3294,1.9161 5.1804,1.9161 C6.0324,1.9161 6.8324,2.2481 7.4344,2.8501 C8.6774,4.0931 8.6774,6.1151 7.4344,7.3571 C6.1924,8.5991 4.1704,8.6001 2.9264,7.3571 M12.5434,10.4141 L10.9444,8.8151 C10.4954,8.3661 9.8334,8.2631 9.2814,8.4971 L8.4594,7.6751 C9.7474,6.0341 9.6534,3.6541 8.1414,2.1431 C7.3514,1.3521 6.2994,0.9161 5.1804,0.9161 C4.0624,0.9161 3.0104,1.3521 2.2194,2.1431 C0.5864,3.7751 0.5864,6.4321 2.2194,8.0641 C3.0364,8.8811 4.1084,9.2891 5.1804,9.2881 C6.0934,9.2881 6.9974,8.9741 7.7524,8.3821 L8.5564,9.1861 C8.2524,9.7581 8.3204,10.4771 8.8014,10.9581 L10.4004,12.5571 C10.6864,12.8431 11.0664,13.0001 11.4724,13.0001 C11.8784,13.0001 12.2584,12.8431 12.5434,12.5571 L12.5444,12.5571 C13.1344,11.9661 13.1344,11.0051 12.5434,10.4141" id="Fill-3" fill="#FFFFFF" mask="url(#mask-5)"></path>
                                </g>
                            </g>
                        </g>
                    </g>
                </g>
            </g>
        </g>
    </g>
</svg>