<?xml version="1.0" encoding="UTF-8"?>
<svg width="24px" height="24px" viewBox="0 0 24 24" version="1.1" xmlns="http://www.w3.org/2000/svg" xmlns:xlink="http://www.w3.org/1999/xlink">
    <!-- Generator: Sketch 55.2 (78181) - https://sketchapp.com -->
    <title>我要签收(7)</title>
    <desc>Created with Sketch.</desc>
    <defs>
        <linearGradient x1="100%" y1="100%" x2="0%" y2="0%" id="linearGradient-1">
            <stop stop-color="#FFC527" offset="0%"></stop>
            <stop stop-color="#FFA01C" offset="100%"></stop>
        </linearGradient>
        <polygon id="path-2" points="0 0.0004 11.6368 0.0004 11.6368 13.6074 0 13.6074"></polygon>
        <polygon id="path-4" points="0.0384038094 0.39770353 7.276 0.39770353 7.276 10 0.0384038094 10"></polygon>
    </defs>
    <g id="页面-1" stroke="none" stroke-width="1" fill="none" fill-rule="evenodd">
        <g id="-票据好管家5" transform="translate(-435.000000, -131.000000)">
            <g id="分组-14" transform="translate(210.000000, 111.000000)">
                <g id="边距-&lt;h10-&gt;">
                    <g id="分组-8-copy" transform="translate(205.000000, 0.000000)">
                        <g id="我要签收(7)" transform="translate(20.000000, 20.000000)">
                            <circle id="椭圆形" fill="url(#linearGradient-1)" cx="12" cy="12" r="12"></circle>
                            <g id="分组" transform="translate(6.000000, 5.000000)">
                                <g>
                                    <mask id="mask-3" fill="white">
                                        <use xlink:href="#path-2"></use>
                                    </mask>
                                    <g id="Clip-2"></g>
                                    <path d="M4.1938,12.6074 L2.0758,12.6074 C1.4828,12.6074 0.9998,12.1244 0.9998,11.5314 L0.9998,2.0754 C0.9998,1.4824 1.4828,1.0004 2.0758,1.0004 L9.5618,1.0004 C10.1548,1.0004 10.6368,1.4824 10.6368,2.0754 L10.6368,3.3714 C10.6368,3.6474 10.8608,3.8714 11.1368,3.8714 C11.4138,3.8714 11.6368,3.6474 11.6368,3.3714 L11.6368,2.0754 C11.6368,0.9314 10.7058,0.0004 9.5618,0.0004 L2.0758,0.0004 C0.9308,0.0004 -0.0002,0.9314 -0.0002,2.0754 L-0.0002,11.5314 C-0.0002,12.6764 0.9308,13.6074 2.0758,13.6074 L4.1938,13.6074 C4.4698,13.6074 4.6938,13.3834 4.6938,13.1074 C4.6938,12.8314 4.4698,12.6074 4.1938,12.6074" id="Fill-1" fill="#FFFFFF" mask="url(#mask-3)"></path>
                                </g>
                                <path d="M11.1372,10.2378 C10.8612,10.2378 10.6372,10.4618 10.6372,10.7378 L10.6372,11.5308 C10.6372,12.1248 10.1552,12.6078 9.5612,12.6078 L9.0232,12.6078 C8.7462,12.6078 8.5232,12.8308 8.5232,13.1078 C8.5232,13.3838 8.7462,13.6078 9.0232,13.6078 L9.5612,13.6078 C10.7062,13.6078 11.6372,12.6758 11.6372,11.5308 L11.6372,10.7378 C11.6372,10.4618 11.4132,10.2378 11.1372,10.2378" id="Fill-3" fill="#FFFFFF"></path>
                                <g transform="translate(5.000000, 4.000000)">
                                    <mask id="mask-5" fill="white">
                                        <use xlink:href="#path-4"></use>
                                    </mask>
                                    <g id="Clip-6"></g>
                                    <path d="M2.3262,8.3613 L1.1202,8.8003 L1.0472,7.5183 L4.3812,2.4563 L5.6602,3.2993 L2.3262,8.3613 Z M5.3012,1.4113 C5.4672,1.3773 5.6392,1.4093 5.7822,1.5033 L5.9882,1.6393 C6.1312,1.7333 6.2282,1.8773 6.2632,2.0443 C6.2922,2.1863 6.2632,2.3273 6.1982,2.4563 L4.9482,1.6323 C5.0402,1.5233 5.1592,1.4413 5.3012,1.4113 L5.3012,1.4113 Z M7.2422,1.8423 C7.1542,1.4133 6.9042,1.0443 6.5382,0.8043 L6.3322,0.6683 C5.9662,0.4273 5.5292,0.3443 5.0992,0.4313 C4.6712,0.5203 4.3022,0.7703 4.0612,1.1353 L3.8462,1.4643 C3.8382,1.4733 3.8272,1.4783 3.8212,1.4883 L0.1202,7.1073 C0.0612,7.1963 0.0332,7.3033 0.0392,7.4103 L0.1602,9.5283 C0.1692,9.6863 0.2532,9.8303 0.3852,9.9173 C0.4672,9.9723 0.5632,10.0003 0.6592,10.0003 C0.7172,10.0003 0.7752,9.9903 0.8302,9.9693 L2.8242,9.2443 C2.9252,9.2073 3.0112,9.1393 3.0702,9.0493 L6.7702,3.4313 L7.0052,3.0743 C7.2462,2.7093 7.3302,2.2713 7.2422,1.8423 L7.2422,1.8423 Z" id="Fill-5" fill="#FFFFFF" mask="url(#mask-5)"></path>
                                </g>
                                <path d="M8.8462,2.2607 L5.7062,5.4697 L4.5072,4.2107 C4.4162,4.1147 4.2902,4.0587 4.1572,4.0557 C4.0252,4.0457 3.8962,4.1017 3.8002,4.1937 L2.0882,5.8277 C1.8882,6.0187 1.8812,6.3347 2.0722,6.5347 C2.2622,6.7347 2.5792,6.7417 2.7792,6.5517 L4.1282,5.2627 L5.3402,6.5337 C5.4332,6.6327 5.5642,6.6827 5.7012,6.6897 C5.8362,6.6897 5.9652,6.6357 6.0592,6.5387 L9.5612,2.9597 C9.7542,2.7627 9.7502,2.4467 9.5532,2.2527 C9.3562,2.0597 9.0402,2.0637 8.8462,2.2607" id="Fill-7" fill="#FFFFFF"></path>
                            </g>
                        </g>
                    </g>
                </g>
            </g>
        </g>
    </g>
</svg>